<mxfile host="app.diagrams.net" modified="2021-08-12T06:31:06.506Z" agent="5.0 (Windows NT 10.0; Win64; x64) AppleWebKit/537.36 (KHTML, like Gecko) Chrome/90.0.4430.93 Safari/537.36" etag="dFuQOlgh5znfmYURwrc-" version="14.9.5" type="github">
  <diagram id="IcKA7xQaq5MA28Ch4QyI" name="Page-1">
    <mxGraphModel dx="759" dy="458" grid="1" gridSize="10" guides="1" tooltips="1" connect="1" arrows="1" fold="1" page="1" pageScale="1" pageWidth="827" pageHeight="1169" math="0" shadow="0">
      <root>
        <mxCell id="0" />
        <mxCell id="1" parent="0" />
        <mxCell id="fTS3_i2XzotSO6842U6D-52" value="" style="rounded=1;whiteSpace=wrap;html=1;shadow=0;glass=0;sketch=0;opacity=70;fillColor=#f5f5f5;fontColor=#333333;strokeColor=none;" vertex="1" parent="1">
          <mxGeometry x="170" y="590" width="420" height="250" as="geometry" />
        </mxCell>
        <mxCell id="fTS3_i2XzotSO6842U6D-53" value="&lt;span style=&quot;font-size: 14px&quot;&gt;Launch Quickly&lt;/span&gt;" style="text;html=1;strokeColor=none;fillColor=none;align=center;verticalAlign=middle;whiteSpace=wrap;rounded=0;" vertex="1" parent="1">
          <mxGeometry x="304.66" y="590" width="150.68" height="20" as="geometry" />
        </mxCell>
        <mxCell id="fTS3_i2XzotSO6842U6D-50" value="" style="rounded=1;whiteSpace=wrap;html=1;shadow=0;glass=0;sketch=0;opacity=70;fillColor=#f5f5f5;fontColor=#333333;strokeColor=none;" vertex="1" parent="1">
          <mxGeometry x="170" y="330" width="420" height="250" as="geometry" />
        </mxCell>
        <mxCell id="fTS3_i2XzotSO6842U6D-16" value="" style="rounded=1;whiteSpace=wrap;html=1;shadow=0;glass=0;sketch=0;opacity=70;fillColor=#dae8fc;strokeColor=none;" vertex="1" parent="1">
          <mxGeometry x="190" y="470" width="380" height="90" as="geometry" />
        </mxCell>
        <mxCell id="fTS3_i2XzotSO6842U6D-22" value="Draw" style="html=1;verticalAlign=bottom;startArrow=circle;startFill=1;endArrow=open;startSize=6;endSize=8;fontSize=9;fillColor=#60a917;strokeColor=#2D7600;horizontal=1;labelBackgroundColor=#DAE8FC;" edge="1" parent="1">
          <mxGeometry width="80" relative="1" as="geometry">
            <mxPoint x="440" y="529" as="sourcePoint" />
            <mxPoint x="550" y="529" as="targetPoint" />
          </mxGeometry>
        </mxCell>
        <mxCell id="fTS3_i2XzotSO6842U6D-23" value="&lt;font style=&quot;font-size: 12px&quot;&gt;Activity Screen&lt;/font&gt;" style="text;html=1;fillColor=#f5f5f5;align=center;verticalAlign=middle;whiteSpace=wrap;rounded=0;fontColor=#333333;" vertex="1" parent="1">
          <mxGeometry x="480" y="480" width="90" height="20" as="geometry" />
        </mxCell>
        <mxCell id="fTS3_i2XzotSO6842U6D-24" value="Measure" style="html=1;verticalAlign=bottom;startArrow=circle;startFill=1;endArrow=open;startSize=6;endSize=8;fontSize=9;fillColor=#d5e8d4;strokeColor=#82b366;labelBackgroundColor=#DAE8FC;" edge="1" parent="1">
          <mxGeometry width="80" relative="1" as="geometry">
            <mxPoint x="210" y="529" as="sourcePoint" />
            <mxPoint x="320" y="529" as="targetPoint" />
          </mxGeometry>
        </mxCell>
        <mxCell id="fTS3_i2XzotSO6842U6D-25" value="Layout" style="html=1;verticalAlign=bottom;startArrow=circle;startFill=1;endArrow=open;startSize=6;endSize=8;fontSize=9;fillColor=#d5e8d4;strokeColor=#82b366;labelBackgroundColor=#DAE8FC;" edge="1" parent="1">
          <mxGeometry width="80" relative="1" as="geometry">
            <mxPoint x="320" y="529" as="sourcePoint" />
            <mxPoint x="440" y="529" as="targetPoint" />
          </mxGeometry>
        </mxCell>
        <mxCell id="fTS3_i2XzotSO6842U6D-30" value="" style="rounded=1;whiteSpace=wrap;html=1;shadow=0;glass=0;sketch=0;opacity=70;fillColor=#dae8fc;strokeColor=none;" vertex="1" parent="1">
          <mxGeometry x="190" y="360" width="380" height="97.46" as="geometry" />
        </mxCell>
        <mxCell id="fTS3_i2XzotSO6842U6D-31" value="&lt;font style=&quot;font-size: 11px&quot;&gt;EnterAnim&lt;/font&gt;" style="html=1;verticalAlign=bottom;startArrow=circle;startFill=1;endArrow=open;startSize=6;endSize=8;fontSize=9;fillColor=#1ba1e2;strokeColor=#006EAF;labelBackgroundColor=#DAE8FC;" edge="1" parent="1">
          <mxGeometry x="0.0773" y="7" width="80" relative="1" as="geometry">
            <mxPoint x="210" y="427.46000000000004" as="sourcePoint" />
            <mxPoint x="360" y="427" as="targetPoint" />
            <mxPoint as="offset" />
          </mxGeometry>
        </mxCell>
        <mxCell id="fTS3_i2XzotSO6842U6D-33" value="ExitAnim" style="html=1;verticalAlign=bottom;startArrow=circle;startFill=1;endArrow=open;startSize=6;endSize=8;fontSize=9;fillColor=#f8cecc;strokeColor=#b85450;labelBackgroundColor=#DAE8FC;gradientColor=#ea6b66;" edge="1" parent="1">
          <mxGeometry x="1" y="12" width="80" relative="1" as="geometry">
            <mxPoint x="440" y="427" as="sourcePoint" />
            <mxPoint x="470" y="427" as="targetPoint" />
            <mxPoint x="10" y="5" as="offset" />
          </mxGeometry>
        </mxCell>
        <mxCell id="fTS3_i2XzotSO6842U6D-35" value="&lt;font style=&quot;font-size: 12px&quot;&gt;Splash Screen&lt;/font&gt;" style="text;html=1;fillColor=#f5f5f5;align=center;verticalAlign=middle;whiteSpace=wrap;rounded=0;fontColor=#333333;" vertex="1" parent="1">
          <mxGeometry x="480" y="370" width="90" height="20" as="geometry" />
        </mxCell>
        <mxCell id="fTS3_i2XzotSO6842U6D-36" value="" style="rounded=1;whiteSpace=wrap;html=1;shadow=0;glass=0;sketch=0;opacity=70;fillColor=#dae8fc;strokeColor=none;" vertex="1" parent="1">
          <mxGeometry x="190" y="730" width="380" height="90" as="geometry" />
        </mxCell>
        <mxCell id="fTS3_i2XzotSO6842U6D-37" value="Draw" style="html=1;verticalAlign=bottom;startArrow=circle;startFill=1;endArrow=open;startSize=6;endSize=8;fontSize=9;fillColor=#60a917;strokeColor=#2D7600;labelBackgroundColor=#DAE8FC;" edge="1" parent="1">
          <mxGeometry x="-0.0909" y="4" width="80" relative="1" as="geometry">
            <mxPoint x="310" y="789" as="sourcePoint" />
            <mxPoint x="420" y="789" as="targetPoint" />
            <mxPoint as="offset" />
          </mxGeometry>
        </mxCell>
        <mxCell id="fTS3_i2XzotSO6842U6D-38" value="&lt;font style=&quot;font-size: 11px&quot;&gt;Activity Screen&lt;/font&gt;" style="text;html=1;fillColor=#f5f5f5;align=center;verticalAlign=middle;whiteSpace=wrap;rounded=0;fontColor=#333333;" vertex="1" parent="1">
          <mxGeometry x="480" y="740" width="90" height="20" as="geometry" />
        </mxCell>
        <mxCell id="fTS3_i2XzotSO6842U6D-41" value="" style="rounded=1;whiteSpace=wrap;html=1;shadow=0;glass=0;sketch=0;opacity=70;fillColor=#dae8fc;strokeColor=none;" vertex="1" parent="1">
          <mxGeometry x="190" y="620" width="380" height="97.46" as="geometry" />
        </mxCell>
        <mxCell id="fTS3_i2XzotSO6842U6D-42" value="&lt;span style=&quot;background-color: rgb(218 , 232 , 252)&quot;&gt;EnterAnim&lt;/span&gt;" style="html=1;verticalAlign=bottom;startArrow=circle;startFill=1;endArrow=open;startSize=6;endSize=8;fontSize=9;fillColor=#1ba1e2;strokeColor=#006EAF;" edge="1" parent="1">
          <mxGeometry x="0.0909" y="7" width="80" relative="1" as="geometry">
            <mxPoint x="220" y="687.46" as="sourcePoint" />
            <mxPoint x="310" y="687" as="targetPoint" />
            <mxPoint as="offset" />
          </mxGeometry>
        </mxCell>
        <mxCell id="fTS3_i2XzotSO6842U6D-44" value="&lt;span style=&quot;background-color: rgb(218 , 232 , 252)&quot;&gt;ExitAnim&lt;/span&gt;" style="html=1;verticalAlign=bottom;startArrow=circle;startFill=1;endArrow=open;startSize=6;endSize=8;fontSize=9;fillColor=#f8cecc;strokeColor=#b85450;gradientColor=#ea6b66;" edge="1" parent="1">
          <mxGeometry x="0.0018" y="7" width="80" relative="1" as="geometry">
            <mxPoint x="310" y="687.46" as="sourcePoint" />
            <mxPoint x="370" y="687" as="targetPoint" />
            <mxPoint as="offset" />
          </mxGeometry>
        </mxCell>
        <mxCell id="fTS3_i2XzotSO6842U6D-46" value="&lt;font style=&quot;font-size: 12px&quot;&gt;Splash Screen&lt;/font&gt;" style="text;html=1;fillColor=#f5f5f5;align=center;verticalAlign=middle;whiteSpace=wrap;rounded=0;fontColor=#333333;" vertex="1" parent="1">
          <mxGeometry x="480" y="630" width="90" height="20" as="geometry" />
        </mxCell>
        <mxCell id="fTS3_i2XzotSO6842U6D-51" value="&lt;span style=&quot;font-size: 14px&quot;&gt;Launch Slowly&lt;/span&gt;" style="text;html=1;strokeColor=none;fillColor=none;align=center;verticalAlign=middle;whiteSpace=wrap;rounded=0;" vertex="1" parent="1">
          <mxGeometry x="304.66" y="330" width="150.68" height="20" as="geometry" />
        </mxCell>
        <mxCell id="fTS3_i2XzotSO6842U6D-55" value="Lay" style="html=1;verticalAlign=bottom;startArrow=circle;startFill=1;endArrow=open;startSize=6;endSize=8;fontSize=9;fillColor=#d5e8d4;strokeColor=#82b366;labelBackgroundColor=#DAE8FC;" edge="1" parent="1">
          <mxGeometry x="0.2" y="4" width="80" relative="1" as="geometry">
            <mxPoint x="270" y="789" as="sourcePoint" />
            <mxPoint x="310" y="789" as="targetPoint" />
            <Array as="points" />
            <mxPoint as="offset" />
          </mxGeometry>
        </mxCell>
        <mxCell id="fTS3_i2XzotSO6842U6D-56" value="Mea" style="html=1;verticalAlign=bottom;startArrow=circle;startFill=1;endArrow=open;startSize=6;endSize=8;fontSize=9;fillColor=#d5e8d4;strokeColor=#82b366;labelBackgroundColor=#DAE8FC;" edge="1" parent="1">
          <mxGeometry y="4" width="80" relative="1" as="geometry">
            <mxPoint x="220" y="789" as="sourcePoint" />
            <mxPoint x="270" y="789" as="targetPoint" />
            <mxPoint as="offset" />
          </mxGeometry>
        </mxCell>
        <mxCell id="fTS3_i2XzotSO6842U6D-59" value="" style="endArrow=classic;html=1;labelBackgroundColor=#DAE8FC;fontSize=9;dashed=1;strokeWidth=2;fillColor=#f5f5f5;strokeColor=#666666;gradientColor=#b3b3b3;" edge="1" parent="1">
          <mxGeometry width="50" height="50" relative="1" as="geometry">
            <mxPoint x="448" y="520" as="sourcePoint" />
            <mxPoint x="448" y="433" as="targetPoint" />
          </mxGeometry>
        </mxCell>
        <mxCell id="fTS3_i2XzotSO6842U6D-60" value="" style="endArrow=classic;html=1;labelBackgroundColor=#DAE8FC;fontSize=9;dashed=1;strokeWidth=2;fillColor=#f5f5f5;strokeColor=#666666;gradientColor=#b3b3b3;" edge="1" parent="1">
          <mxGeometry width="50" height="50" relative="1" as="geometry">
            <mxPoint x="318" y="781" as="sourcePoint" />
            <mxPoint x="318" y="694" as="targetPoint" />
          </mxGeometry>
        </mxCell>
        <mxCell id="fTS3_i2XzotSO6842U6D-62" value="" style="endArrow=none;dashed=1;html=1;strokeWidth=1;labelBackgroundColor=#DAE8FC;fontSize=9;fillColor=#f5f5f5;strokeColor=#666666;dashPattern=1 1;gradientColor=#b3b3b3;" edge="1" parent="1">
          <mxGeometry width="50" height="50" relative="1" as="geometry">
            <mxPoint x="369" y="686" as="sourcePoint" />
            <mxPoint x="369" y="434" as="targetPoint" />
          </mxGeometry>
        </mxCell>
        <mxCell id="fTS3_i2XzotSO6842U6D-34" value="Window Keep" style="html=1;verticalAlign=bottom;startArrow=circle;startFill=1;endArrow=open;startSize=6;endSize=8;fontSize=9;fillColor=#f9f7ed;strokeColor=#36393d;opacity=50;labelBackgroundColor=#DAE8FC;" edge="1" parent="1">
          <mxGeometry x="-0.25" y="7" width="80" relative="1" as="geometry">
            <mxPoint x="360" y="427" as="sourcePoint" />
            <mxPoint x="440" y="427" as="targetPoint" />
            <mxPoint as="offset" />
          </mxGeometry>
        </mxCell>
      </root>
    </mxGraphModel>
  </diagram>
</mxfile>
